# Created by Kenney (www.kenney.nl)

mtllib Adrenaline.mtl

g mergedBlocks

v -2.980232E-08 0 -1.804779E-16
v -0.5 0.65 -0.5
v -0.5 0.65 0.5
v 0.5 0.65 0.5
v 0.5 0.65 -0.5
v 0 1.3 -1.804779E-16

vn -0.792624 -0.6097108 0
vn 0.7926239 -0.6097108 0
vn 0 -0.6097108 -0.792624
vn 0 -0.6097108 0.792624
vn 0 0.6097108 -0.792624
vn -0.792624 0.6097108 0
vn 0 0.6097108 0.792624
vn 0.792624 0.6097108 0

vt -1.804779E-16 0
vt -0.5 0.65
vt 0.5 0.65
vt 1.804779E-16 0
vt 2.980232E-08 0
vt -2.980232E-08 0
vt 0 1.3
vt -1.804779E-16 1.3
vt 1.804779E-16 1.3

usemtl _defaultMat(Clone)

f 3/3/1 2/2/1 1/1/1
f 1/4/2 5/3/2 4/2/2
f 2/3/3 5/2/3 1/5/3
f 3/2/4 1/6/4 4/3/4
f 6/7/5 5/2/5 2/3/5
f 3/3/6 6/8/6 2/2/6
f 6/7/7 3/2/7 4/3/7
f 4/2/8 5/3/8 6/9/8

